<?xml version="1.0" encoding="utf-8"?>
<!-- Generator: Adobe Illustrator 16.0.0, SVG Export Plug-In . SVG Version: 6.00 Build 0)  -->
<!DOCTYPE svg PUBLIC "-//W3C//DTD SVG 1.1//EN" "http://www.w3.org/Graphics/SVG/1.1/DTD/svg11.dtd">
<svg version="1.1" id="Layer_1" xmlns="http://www.w3.org/2000/svg" xmlns:xlink="http://www.w3.org/1999/xlink" x="0px" y="0px"
	 width="74px" height="78.729px" viewBox="0 0 74 78.729" enable-background="new 0 0 74 78.729" xml:space="preserve">
<g>
	<g>
		<path fill="#939393" d="M6.257,70.159H4.966L1.537,66.32v3.839H0v-6.204h1.41l3.321,3.657v-3.657h1.527V70.159z"/>
		<path fill="#939393" d="M10.124,68.129v1.01c-0.2,0.19-0.482,0.309-0.7,0.309c-0.264,0-0.455-0.19-0.455-0.445
			c0-0.3,0.218-0.519,0.69-0.691l0.346-0.136L10.124,68.129z M12.17,69.121l-0.054,0.028c-0.237,0.136-0.345,0.171-0.455,0.171
			c-0.164,0-0.209-0.081-0.209-0.336v-1.656c0-0.398-0.037-0.589-0.127-0.763c-0.238-0.427-0.837-0.682-1.647-0.682
			c-0.291,0-0.673,0.045-0.928,0.118c-0.273,0.073-0.654,0.244-0.9,0.391v1.073c0.418-0.437,1.019-0.71,1.546-0.71
			c0.5,0,0.728,0.209,0.728,0.655v0.055l-0.064,0.02l-0.2,0.062l-0.264,0.082c-0.801,0.256-1.037,0.336-1.291,0.472
			c-0.428,0.236-0.674,0.62-0.674,1.038c0,0.637,0.5,1.102,1.174,1.102c0.455,0,0.836-0.12,1.291-0.411l0.091-0.054
			c0.091,0.328,0.3,0.465,0.746,0.465c0.354,0,0.873-0.156,1.237-0.384V69.121z"/>
		<path fill="#939393" d="M16.081,66.875h-1.509v0.918v0.254v0.118c0,0.884,0.127,1.101,0.627,1.101c0.273,0,0.482-0.055,0.81-0.217
			c0.018,0,0.045-0.021,0.073-0.028v0.954c-0.464,0.19-0.801,0.266-1.229,0.266c-0.59,0-1.082-0.229-1.363-0.629
			c-0.2-0.292-0.255-0.545-0.255-1.219v-1.518h-0.601v-0.247l1.755-1.982h0.183v1.319h1.509V66.875z"/>
		<path fill="#939393" d="M18.437,70.159h-1.264v-4.193h1.264V70.159z M17.828,65.3c-0.401,0-0.728-0.318-0.728-0.7
			c0-0.419,0.327-0.745,0.745-0.745c0.392,0,0.71,0.326,0.71,0.745C18.546,64.982,18.228,65.3,17.828,65.3z"/>
		<path fill="#939393" d="M22.875,68.057c-0.009,0.5-0.082,0.79-0.237,1.01c-0.171,0.236-0.409,0.354-0.7,0.354
			c-0.627,0-0.954-0.445-0.954-1.31c0-0.964,0.299-1.418,0.918-1.418c0.646,0,0.973,0.436,0.973,1.3V68.057z M24.294,68.075
			c0-0.583-0.146-1.01-0.455-1.373c-0.446-0.528-1.128-0.818-1.893-0.818c-1.373,0-2.383,0.937-2.383,2.191
			c0,1.272,0.983,2.166,2.375,2.166C23.34,70.241,24.294,69.367,24.294,68.075z"/>
		<path fill="#939393" d="M26.859,66.565c0.418-0.473,0.828-0.682,1.364-0.682c0.619,0,1.119,0.3,1.373,0.818
			c0.128,0.256,0.164,0.454,0.164,0.981v2.476h-1.328v-2.365c0-0.736-0.172-0.992-0.655-0.992c-0.336,0-0.691,0.256-0.918,0.656
			v2.701H25.54v-4.193h1.319V66.565z"/>
		<path fill="#939393" d="M35.5,69.857c-0.364,0.228-0.882,0.384-1.237,0.384c-0.445,0-0.654-0.137-0.746-0.465l-0.091,0.054
			c-0.455,0.291-0.837,0.411-1.292,0.411c-0.672,0-1.172-0.465-1.172-1.102c0-0.418,0.245-0.802,0.672-1.038
			c0.256-0.136,0.492-0.216,1.292-0.472l0.264-0.082l0.2-0.062l0.063-0.02v-0.055c0-0.446-0.227-0.655-0.727-0.655
			c-0.528,0-1.129,0.273-1.547,0.71v-1.073c0.246-0.146,0.629-0.317,0.901-0.391c0.254-0.073,0.636-0.118,0.927-0.118
			c0.81,0,1.41,0.255,1.647,0.682c0.091,0.174,0.127,0.364,0.127,0.763v1.656c0,0.255,0.046,0.336,0.209,0.336
			c0.108,0,0.218-0.035,0.454-0.171l0.055-0.028V69.857z M33.334,68.175l-0.345,0.136c-0.473,0.173-0.691,0.392-0.691,0.691
			c0,0.255,0.191,0.445,0.455,0.445c0.219,0,0.5-0.118,0.7-0.309v-1.01L33.334,68.175z"/>
		<path fill="#939393" d="M37.772,70.159h-1.327v-6.204h1.327V70.159z"/>
		<path fill="#939393" d="M46.45,70.159h-4.729v-6.204h1.564v5.048h3.165V70.159z"/>
		<path fill="#939393" d="M48.843,70.159h-1.264v-4.193h1.264V70.159z M48.233,65.3c-0.4,0-0.728-0.318-0.728-0.7
			c0-0.419,0.327-0.745,0.746-0.745c0.39,0,0.708,0.326,0.708,0.745C48.952,64.982,48.633,65.3,48.233,65.3z"/>
		<path fill="#939393" d="M51.662,67.057c0.218-0.164,0.519-0.274,0.765-0.274c0.654,0,1.045,0.474,1.045,1.265
			c0,0.783-0.391,1.266-1.027,1.266c-0.255,0-0.5-0.092-0.782-0.311V67.057z M51.662,63.955h-1.319v6.204h1.319v-0.319
			c0.364,0.265,0.755,0.401,1.173,0.401c1.155,0,1.955-0.9,1.955-2.193c0-1.282-0.836-2.164-2.045-2.164
			c-0.41,0-0.664,0.071-1.083,0.318V63.955z"/>
		<path fill="#939393" d="M57.383,67.166h0.019c0.128-0.318,0.3-0.591,0.49-0.838c0.236-0.29,0.528-0.444,0.847-0.444
			c0.264,0,0.499,0.099,0.873,0.383l-0.363,1.163c-0.301-0.208-0.537-0.31-0.774-0.31c-0.409,0-0.808,0.409-1.018,1.01l-0.046,0.154
			l-0.027,0.063v1.812h-1.319v-4.193h1.319V67.166z"/>
		<path fill="#939393" d="M62.531,68.129v1.01c-0.2,0.19-0.482,0.309-0.702,0.309c-0.263,0-0.453-0.19-0.453-0.445
			c0-0.3,0.219-0.519,0.69-0.691l0.346-0.136L62.531,68.129z M64.577,69.121l-0.054,0.028c-0.237,0.136-0.345,0.171-0.455,0.171
			c-0.164,0-0.209-0.081-0.209-0.336v-1.656c0-0.398-0.037-0.589-0.128-0.763c-0.236-0.427-0.837-0.682-1.646-0.682
			c-0.291,0-0.674,0.045-0.929,0.118c-0.272,0.073-0.653,0.244-0.899,0.391v1.073c0.418-0.437,1.019-0.71,1.546-0.71
			c0.5,0,0.728,0.209,0.728,0.655v0.055l-0.064,0.02l-0.199,0.062l-0.264,0.082c-0.801,0.256-1.038,0.336-1.292,0.472
			c-0.427,0.236-0.673,0.62-0.673,1.038c0,0.637,0.5,1.102,1.174,1.102c0.453,0,0.836-0.12,1.291-0.411l0.091-0.054
			c0.091,0.328,0.3,0.465,0.746,0.465c0.354,0,0.872-0.156,1.236-0.384V69.121z"/>
		<path fill="#939393" d="M66.833,67.166h0.02c0.127-0.318,0.299-0.591,0.489-0.838c0.236-0.29,0.527-0.444,0.847-0.444
			c0.264,0,0.501,0.099,0.873,0.383l-0.363,1.163c-0.302-0.208-0.537-0.31-0.774-0.31c-0.408,0-0.808,0.409-1.018,1.01l-0.047,0.154
			l-0.026,0.063v1.812h-1.319v-4.193h1.319V67.166z"/>
		<path fill="#939393" d="M71.191,72.168H69.79l1.228-2.693l-1.638-3.51h1.41l0.881,2.074l0.947-2.074H74L71.191,72.168z"/>
		<path fill="#939393" d="M16.882,76.544c-0.01,0.5-0.082,0.793-0.236,1.011c-0.174,0.236-0.411,0.355-0.701,0.355
			c-0.627,0-0.955-0.446-0.955-1.311c0-0.963,0.3-1.419,0.919-1.419c0.645,0,0.973,0.437,0.973,1.302V76.544z M18.3,76.565
			c0-0.582-0.146-1.01-0.456-1.374c-0.445-0.528-1.126-0.82-1.891-0.82c-1.373,0-2.383,0.938-2.383,2.194
			c0,1.272,0.982,2.164,2.373,2.164C17.345,78.729,18.3,77.856,18.3,76.565z"/>
		<path fill="#939393" d="M21.656,74.453v0.883h-0.599v3.312h-1.319v-3.312h-0.601v-0.883h0.601v-0.108
			c0.028-0.59,0.1-0.899,0.282-1.2c0.11-0.201,0.273-0.363,0.465-0.491c0.299-0.2,0.655-0.292,1.09-0.292
			c0.146,0,0.292,0.01,0.428,0.028l0.31,0.046l0.063,0.008v1.064l-0.073-0.009c-0.209-0.027-0.373-0.046-0.509-0.046
			c-0.536,0-0.736,0.236-0.736,0.883v0.117H21.656z"/>
		<path fill="#939393" d="M29.86,74.117l-0.109-0.054c-0.746-0.374-1.346-0.546-1.892-0.546c-0.564,0-0.928,0.2-0.928,0.5
			c0,0.264,0.318,0.491,1.01,0.737l0.49,0.181c1.191,0.428,1.711,1.021,1.711,1.956c0,1.102-0.974,1.838-2.429,1.838
			c-0.528,0-1.01-0.1-1.638-0.336c-0.363-0.146-0.39-0.156-0.554-0.264v-1.338c0.455,0.281,0.691,0.417,1,0.537
			c0.391,0.164,0.764,0.236,1.146,0.236c0.609,0,0.938-0.191,0.938-0.564c0-0.31-0.209-0.483-0.838-0.699l-0.336-0.12
			c-0.482-0.172-0.736-0.28-1.027-0.444c-0.237-0.128-0.428-0.281-0.583-0.455c-0.255-0.291-0.41-0.719-0.41-1.155
			c0-1.063,0.928-1.766,2.348-1.766c0.69,0,1.309,0.137,2.1,0.482V74.117z"/>
		<path fill="#939393" d="M36.054,78.729h-0.617l-1.02-2.283l-1.055,2.283h-0.619l-1.891-4.276h1.346l0.883,2.229l0.936-2.229h0.791
			l0.928,2.229l0.9-2.229h1.338L36.054,78.729z"/>
		<path fill="#939393" d="M42.966,78.174c-0.489,0.362-1.163,0.555-1.991,0.555c-1.382,0-2.309-0.866-2.309-2.174
			c0-1.256,0.944-2.185,2.219-2.185c1.281,0,2.154,0.921,2.154,2.276v0.117h-3.01c0.046,0.729,0.554,1.146,1.383,1.146
			c0.517,0,0.909-0.137,1.501-0.537l0.053-0.045V78.174z M41.875,76.073c-0.054-0.546-0.408-0.901-0.919-0.901
			c-0.491,0-0.855,0.363-0.899,0.901H41.875z"/>
		<path fill="#939393" d="M47.16,77.501c-0.264,0.208-0.5,0.299-0.773,0.299c-0.608,0-0.991-0.472-0.991-1.235
			c0-0.838,0.373-1.311,1.027-1.311c0.237,0,0.546,0.1,0.737,0.246V77.501z M48.47,72.443h-1.31v2.193
			c-0.346-0.174-0.71-0.266-1.091-0.266c-1.202,0-2.029,0.894-2.029,2.174c0,1.268,0.827,2.185,1.956,2.185
			c0.445,0,0.792-0.119,1.164-0.418v0.337h1.31V72.443z"/>
		<path fill="#939393" d="M51.107,76.073c0.046-0.538,0.409-0.901,0.9-0.901c0.51,0,0.864,0.355,0.919,0.901H51.107z M54.018,77.329
			l-0.055,0.045c-0.591,0.4-0.981,0.537-1.501,0.537c-0.828,0-1.336-0.418-1.382-1.146h3.011v-0.117
			c0-1.355-0.874-2.276-2.156-2.276c-1.272,0-2.22,0.929-2.22,2.185c0,1.308,0.929,2.174,2.312,2.174
			c0.827,0,1.501-0.192,1.991-0.555V77.329z"/>
		<path fill="#939393" d="M56.628,75.055c0.418-0.473,0.827-0.685,1.363-0.685c0.619,0,1.119,0.301,1.375,0.82
			c0.127,0.254,0.163,0.455,0.163,0.981v2.476h-1.328v-2.366c0-0.737-0.172-0.99-0.654-0.99c-0.336,0-0.691,0.253-0.919,0.654v2.702
			H55.31v-4.195h1.318V75.055z"/>
		<path fill="#939393" d="M18.839,11.071l4.284,0.18l-1.302,1.435l-3.812-0.132l2.155,1.957l-1.047,1.151l-4.591-4.171l1.045-1.151
			l2.08,1.89l0.013-0.013l-0.766-3.338l1.144-1.259L18.839,11.071z"/>
		<path fill="#939393" d="M29.689,4.71c0.101,0.224,0.185,0.456,0.247,0.637c0.144,0.433,0.15,0.918,0.045,1.326
			c-0.149,0.514-0.565,1.099-1.052,1.457c-0.265,0.188-0.573,0.366-0.923,0.522c-0.73,0.327-1.292,0.428-1.912,0.358
			c-0.34-0.047-0.654-0.146-0.919-0.296c-0.493-0.278-0.829-0.696-1.152-1.418l-1.396-3.121l1.428-0.639l1.255,2.807
			c0.25,0.556,0.43,0.824,0.677,1.021C26.411,7.69,26.974,7.749,27.53,7.5c0.681-0.305,1.057-0.981,0.91-1.643
			c-0.031-0.136-0.067-0.259-0.119-0.375l-0.182-0.407l-1.255-2.806l1.429-0.639L29.689,4.71z"/>
		<path fill="#939393" d="M40.256,6.755l-1.291-0.021l-3.366-3.895l-0.062,3.839l-1.537-0.026l0.102-6.202l1.41,0.023l3.26,3.71
			l0.06-3.656l1.528,0.025L40.256,6.755z"/>
		<path fill="#939393" d="M50.616,6.084l-0.07-0.083c-0.502-0.615-1.128-1.118-1.768-1.424c-1.255-0.604-2.363-0.31-2.884,0.773
			c-0.465,0.966-0.025,2.026,1.049,2.542c0.344,0.165,0.703,0.257,1.094,0.283l0.316-0.655l-0.805-0.386l0.5-1.041l2.224,1.067
			l-1.108,2.304c-0.782,0.199-1.814,0.057-2.756-0.396c-1.943-0.934-2.748-2.785-1.941-4.465c0.823-1.713,2.74-2.214,4.756-1.246
			c0.484,0.232,0.969,0.546,1.354,0.882c0.243,0.208,0.351,0.32,0.623,0.634L50.616,6.084z"/>
		<path fill="#939393" d="M54.575,15.882l-3.141-3.535l4.636-4.121l1.04,1.169l-3.773,3.353l2.102,2.366L54.575,15.882z"/>
		<path fill="#939393" d="M14.896,23.23l-0.107,0.6c-0.128,0.708-0.377,0.967-0.844,0.883c-0.483-0.086-0.619-0.407-0.485-1.15
			l0.104-0.573L14.896,23.23z M16.267,21.879l-6.104-1.102l-0.514,2.801c-0.098,0.537-0.11,0.867-0.063,1.17
			c0.122,0.808,0.651,1.356,1.421,1.495c0.805,0.146,1.391-0.183,1.817-1.003c0.158,0.556,0.567,0.953,1.077,1.045
			c0.635,0.114,1.295-0.256,1.616-0.911c0.16-0.323,0.214-0.525,0.332-1.169L16.267,21.879z M12.461,22.792l-0.123,0.68
			c-0.186,1.029-0.415,1.32-0.978,1.219c-0.546-0.099-0.677-0.456-0.503-1.412l0.136-0.751L12.461,22.792z"/>
		<path fill="#939393" d="M9.633,32.601l-0.207-1.55l6.147-0.823l0.208,1.551L9.633,32.601z"/>
		<path fill="#939393" d="M16.289,37.265l0.27,0.547c0.318,0.644,0.272,1.001-0.151,1.21c-0.44,0.219-0.741,0.042-1.075-0.634
			l-0.258-0.521L16.289,37.265z M16.586,35.363l-5.56,2.75l1.254,2.557c0.241,0.489,0.428,0.762,0.646,0.979
			c0.579,0.575,1.332,0.702,2.033,0.354c0.733-0.362,1.008-0.977,0.861-1.888c0.459,0.352,1.023,0.427,1.488,0.197
			c0.579-0.286,0.887-0.976,0.756-1.693c-0.063-0.354-0.14-0.549-0.43-1.136L16.586,35.363z M14.071,38.362l0.306,0.62
			c0.464,0.938,0.454,1.308-0.059,1.562c-0.498,0.246-0.814,0.038-1.246-0.836l-0.339-0.684L14.071,38.362z"/>
		<path fill="#939393" d="M19.905,50.033l-3.45-3.235l4.243-4.524l1.142,1.069l-3.452,3.682l2.308,2.166L19.905,50.033z"/>
		<path fill="#939393" d="M23.947,52.507l-1.359-0.772l3.058-5.395l1.361,0.771L23.947,52.507z"/>
		<path fill="#939393" d="M34.414,52.592c-0.193,1.074-1.139,1.71-2.248,1.511c-1.156-0.208-1.799-1.1-1.6-2.21
			c0.206-1.146,1.087-1.735,2.251-1.527C33.999,50.577,34.627,51.45,34.414,52.592z M35.996,52.839
			c0.317-1.772-0.968-3.417-2.938-3.771c-1.979-0.354-3.745,0.743-4.063,2.516c-0.315,1.754,0.961,3.397,2.914,3.746
			C33.904,55.69,35.678,54.613,35.996,52.839z"/>
		<path fill="#939393" d="M44.832,49.404l-2.18,0.5l1.126,4.91l-1.533,0.354l-1.128-4.911l-2.19,0.502l-0.259-1.136l5.903-1.354
			L44.832,49.404z"/>
		<path fill="#939393" d="M54.67,49.271l-3.737,2.638l-3.578-5.066l3.685-2.602l0.666,0.943l-2.407,1.7l0.725,1.024l2.296-1.621
			l0.672,0.95l-2.297,1.623l0.861,1.216l2.459-1.735L54.67,49.271z"/>
		<path fill="#939393" d="M57.534,40.8l4.258-0.512l-1.056,1.625l-3.782,0.483l2.441,1.585l-0.847,1.306l-5.204-3.377l0.847-1.304
			l2.358,1.528l0.009-0.016l-1.293-3.169l0.926-1.427L57.534,40.8z"/>
		<path fill="#939393" d="M64.296,31.387l-0.925,4.48l-6.075-1.254l0.912-4.418l1.132,0.234l-0.598,2.886l1.231,0.254l0.567-2.753
			l1.141,0.236l-0.568,2.752l1.459,0.302l0.61-2.949L64.296,31.387z"/>
		<path fill="#939393" d="M58.398,20.995l0.413,2.199l4.953-0.928l0.289,1.547l-4.952,0.928l0.414,2.207l-1.146,0.215l-1.115-5.954
			L58.398,20.995z"/>
	</g>
	<g>
		<g>
			<polygon fill="#939393" points="35.928,23.141 35.932,21.227 37.988,21.224 37.992,23.141 			"/>
			<g>
				<path fill="#939393" d="M35.93,21.225l0.004-1.931c0,0,0.896-0.012,2.065-0.001l-0.004,1.933H35.93z"/>
				<polygon fill="#939393" points="35.938,33.544 35.928,23.144 37.988,23.141 38.004,33.538 				"/>
				<polygon fill="#939393" points="27.307,35.532 26.877,33.534 35.938,33.544 35.935,35.544 				"/>
				<polygon fill="#939393" points="46.599,35.549 47.038,33.496 37.998,33.504 37.998,35.549 				"/>
				<path fill="#939393" d="M24.459,22.785c0,0,6.005-1.625,11.469-1.562l-0.003,1.917c0,0-4.886-0.169-11.046,1.528L24.459,22.785z
					"/>
				<path fill="#939393" d="M49.494,22.775c0,0-6.039-1.616-11.502-1.552L38,23.144c0,0,4.913-0.18,11.075,1.517L49.494,22.775z"/>
				<g>
					<path fill="#939393" d="M22.429,23.263l-0.42-1.885c0,0,0.871-0.209,2.013-0.458l0.422,1.886L22.429,23.263z"/>
					<polygon fill="#939393" points="24.862,33.994 22.865,25.132 24.879,24.669 26.877,33.534 					"/>
					<path fill="#939393" d="M22.865,25.128l-0.421-1.886c0,0,0.872-0.208,2.015-0.457l0.421,1.886L22.865,25.128z"/>
				</g>
				<g>
					<path fill="#939393" d="M51.478,23.241l0.421-1.885c0,0-0.871-0.209-2.014-0.458l-0.422,1.887L51.478,23.241z"/>
					<polygon fill="#939393" points="49.044,33.972 51.041,25.111 49.029,24.647 47.029,33.512 					"/>
					<polygon fill="#939393" points="51.041,25.105 51.463,23.221 49.466,22.771 49.027,24.648 					"/>
				</g>
			</g>
		</g>
	</g>
	<path fill="#939393" d="M14.761,18.262c-0.427,0-0.8-0.364-0.8-0.792c0-0.437,0.354-0.791,0.792-0.791
		c0.446,0,0.792,0.345,0.792,0.782C15.544,17.898,15.188,18.262,14.761,18.262z"/>
	<path fill="#939393" d="M59.706,17.439c0-0.437-0.346-0.783-0.792-0.783c-0.436,0-0.79,0.354-0.79,0.792
		c0,0.427,0.372,0.792,0.801,0.792C59.352,18.24,59.706,17.875,59.706,17.439z"/>
	<ellipse fill="#939393" cx="37.119" cy="0.455" rx="0.076" ry="0.455"/>
</g>
</svg>
