<?xml version="1.0" encoding="utf-8"?>
<!-- Generator: Adobe Illustrator 16.0.0, SVG Export Plug-In . SVG Version: 6.00 Build 0)  -->
<!DOCTYPE svg PUBLIC "-//W3C//DTD SVG 1.1//EN" "http://www.w3.org/Graphics/SVG/1.1/DTD/svg11.dtd">
<svg version="1.1" id="Layer_1" xmlns="http://www.w3.org/2000/svg" xmlns:xlink="http://www.w3.org/1999/xlink" x="0px" y="0px"
	 width="256px" height="51.85px" viewBox="0 0 256 51.85" enable-background="new 0 0 256 51.85" xml:space="preserve">
<rect x="3.916" y="37.026" fill="#1E6658" width="49.827" height="6.831"/>
<rect y="27.85" fill="#20957D" width="49.828" height="6.831"/>
<rect x="3.916" y="18.671" fill="#58C2AF" width="49.827" height="6.833"/>
<rect y="9.495" fill="#683A70" width="49.826" height="6.832"/>
<rect y="0.317" fill="#EE386E" width="49.826" height="6.832"/>
<g>
	<path fill="#939393" d="M60.422,13.328h6.798v1.971H58.23V0.198h2.191V13.328z"/>
	<path fill="#939393" d="M73.064,15.299h-2.169V0.198h2.169V15.299z"/>
	<path fill="#939393" d="M80.326,2.125h1.438h0.445c1.858,0,2.767,0.709,2.767,2.17c0,1.062-0.643,1.925-1.64,2.193
		c-0.441,0.131-0.929,0.176-1.548,0.176h-1.462V2.125z M78.178,0.198v15.101h4.186l0.929,0.022c1.351,0.022,2.126-0.199,3.011-0.665
		c1.438-0.752,2.215-1.971,2.215-3.476c0-1.948-1.395-3.454-3.61-3.853V7.283c1.551-0.619,2.303-1.66,2.303-3.167
		c0-1.527-0.752-2.745-2.147-3.408c-0.753-0.377-1.529-0.51-2.923-0.51H78.178z M80.326,8.612h2.038
		c1.704,0,2.391,0.155,3.032,0.621c0.554,0.397,0.885,1.062,0.885,1.75c0,0.752-0.397,1.504-1.062,1.926
		c-0.575,0.375-1.173,0.463-2.746,0.463h-2.147V8.612z"/>
	<path fill="#939393" d="M94.629,2.036h0.664c1.328,0,2.017,0.089,2.569,0.355c0.686,0.331,1.15,1.129,1.15,1.992
		c0,1.24-0.797,2.17-1.991,2.325c-0.4,0.068-0.954,0.089-1.551,0.089h-0.841V2.036z M92.481,0.198v15.101h2.148V8.723h0.576
		c0.976,0,1.305,0.066,1.816,0.443c0.619,0.442,1.172,1.085,1.903,2.103c0.31,0.466,0.886,1.329,1.44,2.236
		c0.244,0.376,0.42,0.643,0.51,0.797l0.53,0.798l0.154,0.199h2.571l-0.134-0.176l-0.664-0.909c-0.333-0.443-0.753-1.085-1.261-1.925
		c-1.042-1.706-1.398-2.237-2.061-2.991c-0.488-0.575-0.708-0.774-1.304-1.172c1.636-0.642,2.523-1.948,2.523-3.72
		c0-2.589-1.906-4.207-4.96-4.207H92.481z"/>
	<path fill="#939393" d="M109.75,15.299h-2.169V0.198h2.169V15.299z"/>
	<path fill="#939393" d="M122.038,3.52c-1.084-1.04-2.28-1.572-3.52-1.572c-1.418,0-2.413,0.73-2.413,1.75
		c0,0.908,0.62,1.638,2.103,2.522l1.661,0.976c1.839,1.063,2.767,2.48,2.767,4.185c0,2.434-1.792,4.118-4.381,4.118
		c-1.462,0-2.835-0.464-4.074-1.395v-2.745c0.531,0.664,0.752,0.887,1.239,1.24c0.84,0.62,1.881,0.974,2.812,0.974
		c1.349,0,2.368-0.841,2.368-1.993c0-0.93-0.709-1.859-1.993-2.612l-1.636-0.996c-2.038-1.219-2.858-2.348-2.858-3.964
		c0-2.37,1.816-4.007,4.451-4.007c1.24,0,2.392,0.332,3.476,1.062V3.52z"/>
</g>
<g>
	<path fill="#1E6658" d="M74.81,44.125h-3.14l-8.367-11.132l-2.403,2.136v8.996H58.23V21.171h2.669v11.384l10.409-11.384h3.156
		l-9.231,9.97L74.81,44.125z"/>
	<path fill="#1E6658" d="M87.351,44.125l-0.518-2.449h-0.126c-0.858,1.077-1.714,1.808-2.567,2.19
		c-0.853,0.381-1.917,0.572-3.195,0.572c-1.706,0-3.043-0.438-4.012-1.319c-0.968-0.878-1.452-2.13-1.452-3.752
		c0-3.475,2.779-5.296,8.338-5.464l2.919-0.093v-1.068c0-1.352-0.291-2.348-0.872-2.991s-1.509-0.965-2.787-0.965
		c-1.435,0-3.057,0.438-4.867,1.318l-0.801-1.995c0.848-0.46,1.777-0.821,2.787-1.082c1.01-0.263,2.023-0.393,3.038-0.393
		c2.051,0,3.571,0.456,4.561,1.365c0.99,0.912,1.484,2.371,1.484,4.381v11.744H87.351z M81.464,42.288
		c1.622,0,2.896-0.446,3.823-1.334c0.926-0.891,1.39-2.136,1.39-3.737v-1.555l-2.606,0.11c-2.073,0.073-3.567,0.395-4.483,0.965
		s-1.374,1.458-1.374,2.662c0,0.941,0.286,1.658,0.855,2.15C79.64,42.042,80.438,42.288,81.464,42.288z"/>
	<path fill="#1E6658" d="M99.407,42.288c0.46,0,0.904-0.034,1.333-0.103c0.43-0.067,0.77-0.139,1.021-0.212v1.994
		c-0.283,0.136-0.699,0.249-1.249,0.337c-0.549,0.09-1.043,0.134-1.483,0.134c-3.329,0-4.993-1.753-4.993-5.26V28.942h-2.464v-1.257
		l2.464-1.082l1.099-3.674h1.507v3.987h4.993v2.026h-4.993v10.127c0,1.036,0.245,1.831,0.738,2.387
		C97.873,42.011,98.547,42.288,99.407,42.288z"/>
	<path fill="#1E6658" d="M114.978,44.125l-0.519-2.449h-0.125c-0.858,1.077-1.714,1.808-2.567,2.19
		c-0.853,0.381-1.917,0.572-3.195,0.572c-1.706,0-3.043-0.438-4.011-1.319c-0.968-0.878-1.453-2.13-1.453-3.752
		c0-3.475,2.779-5.296,8.337-5.464l2.92-0.093v-1.068c0-1.352-0.29-2.348-0.871-2.991c-0.581-0.644-1.509-0.965-2.787-0.965
		c-1.434,0-3.056,0.438-4.867,1.318l-0.801-1.995c0.848-0.46,1.778-0.821,2.788-1.082c1.01-0.263,2.023-0.393,3.038-0.393
		c2.052,0,3.572,0.456,4.562,1.365c0.988,0.912,1.483,2.371,1.483,4.381v11.744H114.978z M109.09,42.288
		c1.623,0,2.897-0.446,3.823-1.334c0.926-0.891,1.389-2.136,1.389-3.737v-1.555l-2.606,0.11c-2.073,0.073-3.567,0.395-4.482,0.965
		c-0.916,0.57-1.374,1.458-1.374,2.662c0,0.941,0.286,1.658,0.856,2.15S108.064,42.288,109.09,42.288z"/>
	<path fill="#1E6658" d="M124.081,44.125h-2.606v-24.43h2.606V44.125z"/>
	<path fill="#1E6658" d="M143.655,35.505c0,2.805-0.706,4.996-2.119,6.571c-1.413,1.574-3.364,2.362-5.856,2.362
		c-1.538,0-2.904-0.361-4.098-1.083c-1.192-0.723-2.114-1.758-2.763-3.109c-0.649-1.35-0.973-2.931-0.973-4.741
		c0-2.806,0.701-4.99,2.104-6.555c1.402-1.564,3.35-2.347,5.84-2.347c2.408,0,4.32,0.8,5.738,2.401
		C142.946,30.607,143.655,32.772,143.655,35.505z M130.546,35.505c0,2.199,0.44,3.873,1.318,5.025
		c0.88,1.15,2.173,1.726,3.878,1.726c1.707,0,3.002-0.572,3.887-1.719s1.326-2.823,1.326-5.032c0-2.188-0.441-3.849-1.326-4.985
		c-0.885-1.135-2.191-1.703-3.917-1.703c-1.707,0-2.994,0.56-3.862,1.681C130.981,31.617,130.546,33.286,130.546,35.505z"/>
	<path fill="#1E6658" d="M161.505,26.916v1.649l-3.187,0.377c0.292,0.366,0.555,0.845,0.784,1.437
		c0.231,0.592,0.345,1.259,0.345,2.002c0,1.686-0.574,3.03-1.726,4.034c-1.152,1.006-2.732,1.508-4.741,1.508
		c-0.513,0-0.995-0.042-1.445-0.126c-1.11,0.586-1.665,1.325-1.665,2.215c0,0.471,0.194,0.819,0.581,1.044
		c0.388,0.225,1.053,0.337,1.994,0.337h3.046c1.863,0,3.294,0.394,4.293,1.177c1.001,0.786,1.5,1.927,1.5,3.424
		c0,1.904-0.764,3.357-2.293,4.357c-1.528,1-3.757,1.499-6.688,1.499c-2.25,0-3.985-0.419-5.206-1.257
		c-1.219-0.838-1.829-2.02-1.829-3.548c0-1.046,0.334-1.952,1.005-2.717c0.669-0.764,1.612-1.281,2.826-1.554
		c-0.44-0.199-0.809-0.508-1.107-0.926c-0.298-0.42-0.448-0.905-0.448-1.461c0-0.628,0.168-1.177,0.502-1.648
		c0.335-0.471,0.863-0.926,1.586-1.366c-0.89-0.366-1.614-0.988-2.174-1.868c-0.56-0.879-0.84-1.884-0.84-3.014
		c0-1.884,0.564-3.337,1.695-4.357c1.13-1.021,2.731-1.53,4.804-1.53c0.9,0,1.712,0.104,2.434,0.312H161.505z M147.782,47.014
		c0,0.932,0.394,1.639,1.178,2.119c0.786,0.481,1.911,0.722,3.375,0.722c2.188,0,3.808-0.325,4.86-0.98
		c1.051-0.654,1.578-1.541,1.578-2.662c0-0.931-0.288-1.577-0.863-1.938c-0.575-0.36-1.659-0.541-3.25-0.541h-3.124
		c-1.183,0-2.104,0.282-2.763,0.848C148.112,45.145,147.782,45.957,147.782,47.014z M149.195,32.429c0,1.203,0.341,2.113,1.021,2.73
		c0.682,0.618,1.629,0.927,2.842,0.927c2.543,0,3.815-1.234,3.815-3.705c0-2.585-1.287-3.879-3.862-3.879
		c-1.225,0-2.167,0.33-2.826,0.99C149.525,30.151,149.195,31.13,149.195,32.429z"/>
	<path fill="#1E6658" d="M164.013,22.254c0-0.597,0.147-1.034,0.44-1.312s0.66-0.417,1.099-0.417c0.418,0,0.78,0.142,1.084,0.424
		c0.303,0.283,0.455,0.718,0.455,1.304c0,0.585-0.151,1.023-0.455,1.311c-0.304,0.287-0.666,0.431-1.084,0.431
		c-0.439,0-0.806-0.144-1.099-0.431C164.16,23.278,164.013,22.84,164.013,22.254z M166.839,44.125h-2.606V26.916h2.606V44.125z"/>
	<path fill="#1E6658" d="M182.662,39.43c0,1.603-0.596,2.837-1.789,3.705c-1.194,0.869-2.868,1.304-5.025,1.304
		c-2.281,0-4.061-0.361-5.337-1.083v-2.418c0.827,0.419,1.715,0.748,2.662,0.988c0.947,0.242,1.86,0.362,2.739,0.362
		c1.36,0,2.407-0.218,3.141-0.652c0.733-0.434,1.099-1.096,1.099-1.985c0-0.67-0.29-1.243-0.871-1.72
		c-0.581-0.477-1.714-1.039-3.399-1.688c-1.602-0.596-2.74-1.116-3.415-1.562c-0.674-0.444-1.177-0.95-1.507-1.516
		c-0.329-0.564-0.494-1.238-0.494-2.024c0-1.402,0.57-2.51,1.711-3.321c1.141-0.812,2.706-1.216,4.694-1.216
		c1.853,0,3.664,0.376,5.433,1.13l-0.926,2.12c-1.729-0.712-3.293-1.067-4.696-1.067c-1.234,0-2.167,0.193-2.794,0.58
		s-0.941,0.921-0.941,1.603c0,0.46,0.117,0.853,0.353,1.176c0.235,0.325,0.614,0.635,1.137,0.927
		c0.523,0.293,1.529,0.718,3.015,1.271c2.041,0.743,3.42,1.492,4.138,2.245C182.305,37.343,182.662,38.29,182.662,39.43z"/>
	<path fill="#1E6658" d="M193.366,44.438c-2.543,0-4.55-0.775-6.021-2.323c-1.471-1.549-2.205-3.701-2.205-6.453
		c0-2.774,0.682-4.977,2.049-6.609c1.366-1.634,3.2-2.449,5.503-2.449c2.155,0,3.863,0.709,5.118,2.127
		c1.257,1.417,1.885,3.289,1.885,5.612v1.649H187.84c0.052,2.02,0.562,3.553,1.531,4.601c0.967,1.046,2.331,1.569,4.09,1.569
		c1.853,0,3.684-0.387,5.495-1.162v2.323c-0.921,0.398-1.793,0.684-2.614,0.855C195.521,44.353,194.528,44.438,193.366,44.438z
		 M192.66,28.786c-1.382,0-2.484,0.449-3.306,1.35c-0.821,0.899-1.306,2.146-1.452,3.737h8.997c0-1.645-0.366-2.902-1.1-3.776
		C195.066,29.222,194.021,28.786,192.66,28.786z"/>
	<path fill="#1E6658" d="M211.184,26.604c0.764,0,1.449,0.062,2.057,0.188l-0.36,2.419c-0.713-0.157-1.34-0.235-1.885-0.235
		c-1.392,0-2.582,0.565-3.571,1.695s-1.484,2.537-1.484,4.223v9.232h-2.606V26.916h2.152l0.298,3.188h0.125
		c0.639-1.121,1.408-1.984,2.308-2.591C209.116,26.907,210.105,26.604,211.184,26.604z"/>
	<path fill="#1E6658" d="M215.437,22.254c0-0.597,0.146-1.034,0.439-1.312c0.292-0.278,0.659-0.417,1.099-0.417
		c0.418,0,0.779,0.142,1.083,0.424c0.304,0.283,0.456,0.718,0.456,1.304c0,0.585-0.152,1.023-0.456,1.311
		c-0.304,0.287-0.665,0.431-1.083,0.431c-0.439,0-0.807-0.144-1.099-0.431C215.583,23.278,215.437,22.84,215.437,22.254z
		 M218.263,44.125h-2.606V26.916h2.606V44.125z"/>
	<path fill="#1E6658" d="M234.76,44.125V32.993c0-1.403-0.319-2.449-0.958-3.14c-0.639-0.691-1.638-1.037-2.999-1.037
		c-1.801,0-3.119,0.487-3.956,1.46c-0.837,0.974-1.256,2.58-1.256,4.82v9.028h-2.606V26.916h2.12l0.424,2.355h0.125
		c0.534-0.847,1.282-1.503,2.246-1.97c0.962-0.467,2.034-0.698,3.218-0.698c2.072,0,3.632,0.499,4.678,1.499
		c1.047,0.999,1.571,2.598,1.571,4.796v11.227H234.76z"/>
	<path fill="#1E6658" d="M256,26.916v1.649l-3.188,0.377c0.293,0.366,0.555,0.845,0.784,1.437c0.23,0.592,0.346,1.259,0.346,2.002
		c0,1.686-0.575,3.03-1.727,4.034c-1.151,1.006-2.732,1.508-4.742,1.508c-0.513,0-0.994-0.042-1.444-0.126
		c-1.109,0.586-1.664,1.325-1.664,2.215c0,0.471,0.194,0.819,0.581,1.044c0.388,0.225,1.052,0.337,1.993,0.337h3.047
		c1.863,0,3.294,0.394,4.295,1.177c0.999,0.786,1.499,1.927,1.499,3.424c0,1.904-0.765,3.357-2.293,4.357s-3.758,1.499-6.688,1.499
		c-2.25,0-3.984-0.419-5.204-1.257s-1.829-2.02-1.829-3.548c0-1.046,0.335-1.952,1.005-2.717c0.669-0.764,1.611-1.281,2.826-1.554
		c-0.44-0.199-0.809-0.508-1.107-0.926c-0.298-0.42-0.448-0.905-0.448-1.461c0-0.628,0.168-1.177,0.503-1.648
		c0.335-0.471,0.864-0.926,1.586-1.366c-0.89-0.366-1.614-0.988-2.175-1.868c-0.56-0.879-0.84-1.884-0.84-3.014
		c0-1.884,0.565-3.337,1.696-4.357s2.731-1.53,4.805-1.53c0.9,0,1.71,0.104,2.433,0.312H256z M242.277,47.014
		c0,0.932,0.392,1.639,1.178,2.119c0.785,0.481,1.909,0.722,3.375,0.722c2.188,0,3.808-0.325,4.859-0.98
		c1.053-0.654,1.579-1.541,1.579-2.662c0-0.931-0.288-1.577-0.864-1.938c-0.575-0.36-1.658-0.541-3.25-0.541h-3.125
		c-1.182,0-2.104,0.282-2.763,0.848C242.606,45.145,242.277,45.957,242.277,47.014z M243.689,32.429c0,1.203,0.341,2.113,1.021,2.73
		c0.68,0.618,1.627,0.927,2.842,0.927c2.544,0,3.814-1.234,3.814-3.705c0-2.585-1.287-3.879-3.862-3.879
		c-1.224,0-2.166,0.33-2.826,0.99C244.02,30.151,243.689,31.13,243.689,32.429z"/>
</g>
</svg>
